<svg width="1024" height="1024" xmlns="http://www.w3.org/2000/svg">
  <defs>
    <linearGradient id="bg" x1="0%" y1="0%" x2="0%" y2="100%">
      <stop offset="0%" stop-color="#6366F1"/>
      <stop offset="100%" stop-color="#8B5CF6"/>
    </linearGradient>
  </defs>
  <rect width="1024" height="1024" fill="url(#bg)"/>
  <rect x="480" y="450" width="330" height="245" rx="50" fill="white" opacity="0.95"/>
  <rect x="240" y="330" width="290" height="205" rx="45" fill="white" opacity="0.95"/>
  <g transform="translate(645, 572)">
    <line x1="0" y1="-35" x2="0" y2="-10" stroke="#6366F1" stroke-width="8" stroke-linecap="round"/>
    <line x1="0" y1="10" x2="0" y2="35" stroke="#6366F1" stroke-width="8" stroke-linecap="round"/>
    <line x1="-35" y1="0" x2="-10" y2="0" stroke="#6366F1" stroke-width="8" stroke-linecap="round"/>
    <line x1="10" y1="0" x2="35" y2="0" stroke="#6366F1" stroke-width="8" stroke-linecap="round"/>
    <line x1="-25" y1="-25" x2="-7" y2="-7" stroke="#6366F1" stroke-width="8" stroke-linecap="round"/>
    <line x1="7" y1="7" x2="25" y2="25" stroke="#6366F1" stroke-width="8" stroke-linecap="round"/>
    <line x1="25" y1="-25" x2="7" y2="-7" stroke="#6366F1" stroke-width="8" stroke-linecap="round"/>
    <line x1="-7" y1="7" x2="-25" y2="25" stroke="#6366F1" stroke-width="8" stroke-linecap="round"/>
  </g>
  <circle cx="355" cy="432" r="12" fill="#8B5CF6"/>
  <circle cx="385" cy="432" r="12" fill="#8B5CF6" opacity="0.7"/>
  <circle cx="415" cy="432" r="12" fill="#8B5CF6" opacity="0.4"/>
</svg>
